Coordinates
version=1
nRows=8
nColumns=63
inDegrees=yes

Units are S.I. units (second, meters, Newtons, ...)
If the header above contains a line with 'inDegrees', this indicates whether rotational values are in degrees (yes) or radians (no).

endheader
time	pelvis_tilt	pelvis_list	pelvis_rotation	pelvis_tx	pelvis_ty	pelvis_tz	hip_flexion_r	hip_adduction_r	hip_rotation_r	knee_angle_r	knee_angle_r_beta	ankle_angle_r	subtalar_angle_r	mtp_angle_r	hip_flexion_l	hip_adduction_l	hip_rotation_l	knee_angle_l	knee_angle_l_beta	ankle_angle_l	subtalar_angle_l	mtp_angle_l	L5_S1_Flex_Ext	L5_S1_Lat_Bending	L5_S1_axial_rotation	L4_L5_Flex_Ext	L4_L5_Lat_Bending	L4_L5_axial_rotation	L3_L4_Flex_Ext	L3_L4_Lat_Bending	L3_L4_axial_rotation	L2_L3_Flex_Ext	L2_L3_Lat_Bending	L2_L3_axial_rotation	L1_L2_Flex_Ext	L1_L2_Lat_Bending	L1_L2_axial_rotation	L1_T12_Flex_Ext	L1_T12_Lat_Bending	L1_T12_axial_rotation	Abs_r3	Abs_r2	Abs_r1	Abs_t1	Abs_t2	neck_flexion	neck_bending	neck_rotation	arm_flex_r	arm_add_r	arm_rot_r	elbow_flex_r	pro_sup_r	wrist_flex_r	wrist_dev_r	arm_flex_l	arm_add_l	arm_rot_l	elbow_flex_l	pro_sup_l	wrist_flex_l	wrist_dev_l
0.733333	3.610980	-0.522309	98.663511	-0.126217	0.778536	0.629572	0.026729	0.232783	-15.416179	13.660263	0.238417	29.849717	9.787565	0.000000	-2.300222	-1.798062	12.085616	1.751321	0.030566	25.970727	-1.249602	0.000000	0.210097	0.310064	-1.918067	0.390171	0.412385	-2.037946	0.345168	0.753889	-2.037946	0.240120	0.753889	-1.678308	0.195096	0.632282	-1.558429	0.120049	0.480289	-1.438550	1.500700	3.507503	-10.667711	0.000000	0.000000	6.690549	3.650974	2.913703	43.817827	-84.315799	99.702463	9.543690	5.397061	-12.888637	5.074656	2.713032	-80.836403	64.061128	4.756305	31.789429	-14.283786	-2.821834
0.750000	3.669934	-0.526421	98.654278	-0.126483	0.778623	0.629771	-0.049320	0.261264	-15.807855	13.514273	0.235869	29.821342	10.361950	0.000000	-2.274445	-1.835510	12.195266	1.770426	0.030900	25.950502	-1.339591	0.000000	0.210313	0.319181	-1.924786	0.390572	0.424511	-2.045085	0.345523	0.776057	-2.045085	0.240367	0.776057	-1.684188	0.195297	0.650874	-1.563889	0.120173	0.494411	-1.443590	1.502244	3.610640	-10.705083	0.000000	0.000000	6.581262	3.656419	2.902261	46.335582	-84.192104	101.415481	9.746213	5.585997	-12.827378	4.791203	1.090609	-80.779374	57.927843	5.109849	28.777269	-14.873853	-4.140043
0.766667	3.705678	-0.527186	98.687019	-0.126762	0.778706	0.629974	-0.152069	0.273769	-16.211497	13.325183	0.232568	29.803811	10.910308	0.000000	-2.251983	-1.853303	12.397121	1.790309	0.031247	25.936536	-1.461339	0.000000	0.210635	0.325582	-1.935253	0.391171	0.433024	-2.056207	0.346053	0.791620	-2.056207	0.240735	0.791620	-1.693347	0.195596	0.663927	-1.572393	0.120357	0.504327	-1.451440	1.504547	3.683050	-10.763299	0.000000	0.000000	6.466734	3.651143	2.897735	47.793472	-84.099109	101.737349	9.998329	5.924891	-12.767435	4.610313	0.111458	-80.747789	54.518764	5.441167	26.929276	-15.079513	-5.193727
0.783333	3.730913	-0.521642	98.768603	-0.127088	0.778798	0.630189	-0.279486	0.281786	-16.639134	13.097399	0.228593	29.784585	11.437400	0.000000	-2.229060	-1.864438	12.601865	1.816448	0.031703	25.941963	-1.501888	0.000000	0.210699	0.331670	-1.957704	0.391289	0.441121	-2.080060	0.346157	0.806422	-2.080060	0.240808	0.806422	-1.712991	0.195655	0.676341	-1.590634	0.120393	0.513757	-1.468278	1.505001	3.751917	-10.888162	0.000000	0.000000	6.333093	3.616247	2.966955	48.665183	-84.006776	101.081895	10.285661	6.335196	-12.665455	4.507997	-0.708398	-80.715943	52.934829	5.693158	26.365029	-14.995591	-5.918661
0.800000	3.768505	-0.496466	98.891303	-0.127514	0.778889	0.630437	-0.430355	0.310996	-17.034268	12.846787	0.224219	29.747204	11.862766	0.000000	-2.216836	-1.888330	12.930047	1.844925	0.032200	25.941902	-1.666267	0.000000	0.209285	0.341359	-1.996097	0.388663	0.454007	-2.120853	0.343834	0.829979	-2.120853	0.239192	0.829979	-1.746585	0.194342	0.696098	-1.621829	0.119585	0.528764	-1.497073	1.494901	3.861516	-11.101694	0.000000	0.000000	6.175265	3.533119	3.139609	51.470369	-84.024043	103.238982	10.431367	6.059282	-12.386939	4.483868	-1.296246	-80.667740	53.743997	5.859404	27.049193	-14.535845	-6.239787
0.816667	3.799237	-0.463819	99.071649	-0.128017	0.778959	0.630696	-0.592779	0.336729	-17.451717	12.590504	0.219746	29.715192	12.240763	0.000000	-2.201017	-1.906239	13.309196	1.884172	0.032885	25.942315	-1.837339	0.000000	0.207546	0.351089	-2.036854	0.385435	0.466948	-2.164157	0.340978	0.853638	-2.164157	0.237205	0.853638	-1.782247	0.192728	0.715941	-1.654944	0.118592	0.543837	-1.527641	1.482484	3.971589	-11.328371	0.000000	0.000000	6.026784	3.419311	3.320008	52.334238	-84.073802	102.924250	10.728134	6.084087	-12.105902	4.559428	-1.159401	-80.631143	56.496470	5.981966	29.143348	-13.790169	-6.126015
0.833333	3.812160	-0.427800	99.312914	-0.128530	0.779039	0.630951	-0.772321	0.365323	-17.807152	12.303864	0.214743	29.649022	12.448943	0.000000	-2.177284	-1.914294	13.637223	1.935703	0.033784	25.948286	-1.886088	0.000000	0.205835	0.357830	-2.077832	0.382256	0.475914	-2.207696	0.338166	0.870028	-2.207696	0.235248	0.870028	-1.818103	0.191138	0.729687	-1.688238	0.117614	0.554279	-1.558374	1.470257	4.047846	-11.556277	0.000000	0.000000	5.888557	3.298986	3.452717	51.060533	-84.118041	99.980879	11.089399	6.383849	-11.814250	4.659832	-0.904907	-80.661162	59.058034	6.075754	30.810001	-13.253628	-5.745713
0.850000	3.830766	-0.395853	99.612586	-0.129143	0.779087	0.631199	-0.950535	0.401986	-18.192128	12.012808	0.209663	29.563617	12.623818	0.000000	-2.135479	-1.927533	13.970673	1.999748	0.034902	25.959455	-1.890309	0.000000	0.204641	0.366488	-2.128939	0.380039	0.487430	-2.261998	0.336205	0.891080	-2.261998	0.233884	0.891080	-1.862822	0.190030	0.747343	-1.729763	0.116932	0.567691	-1.596704	1.461729	4.145791	-11.840522	0.000000	0.000000	5.789376	3.144758	3.632341	48.448557	-84.192381	95.389964	11.563761	6.866539	-11.528087	4.794636	-1.186703	-80.683437	60.638741	6.245293	31.341558	-12.802838	-5.463339
